# xmcd
#
# Track frame offsets:
#	150
#	8823
#	14333
#	26169
#	36305
#	43374
#	55885
#	65985
#	72033
#	86715
#	94016
#	99370
#	108701
#	118654
#	125301
#	139088
#	156282
#	165789
#	175130
#	189582
#	200267
#
# Disc length: 2902
#
# Revision: 1
# Processed by: cddbd v1.5.1PL0 Copyright (c) Steve Scherf et al.
# Submitted via: MusicManager v6.0.0.0
# Normalized: r0:DSETVAR1
#
DISCID=230b5415
DTITLE=Various Artist - Grand Ole Opry AFRS Dec 1947
DYEAR=1900
DGENRE=country
TTITLE0=Red Foley - Intro/Roly Poly
TTITLE1=Old Hickory Singers - Wait 'Til the Sun Shines Down
TTITLE2=Roy Acuff - Little Moses
TTITLE3=Minnie Pearl - Comedy
TTITLE4=Red Foley - I Love to Tell the Story
TTITLE5=Roy Acuff - An Uncloudy Day
TTITLE6=Roy Acuff - The Great Speckled Bird
TTITLE7=Grandpa Jones - I'm Comin' Home
TTITLE8=Rod Brasfield - Comedy
TTITLE9=Wally Fowler and The Oak Ridge Quartet - I Ain't Gonna Study War No More
TTITLE10=Red Foley - 'Til the End of Time
TTITLE11=Joe Carroll - Cripple Creek/Outro
TTITLE12=Red Foley - Intro/Rocking Chair Money
TTITLE13=Unknown - Auld Lang Syne
TTITLE14=Eddy Arnold - I'll Hold You in My Heart
TTITLE15=Minnie Pearl - Comedy
TTITLE16=Red Foley - There's a Light Guiding Me
TTITLE17=Eddy Arnold - Through My Sorrow
TTITLE18=Rod Brasfield - Comedy
TTITLE19=Wally Fowler and the Oak Ridge Quartet - Everybody's Gonna Have a Wonderful Time
TTITLE20=Red Foley - When My Blue Moon Turns To Gold Again
EXTD=
EXTT0=
EXTT1=
EXTT2=
EXTT3=
EXTT4=
EXTT5=
EXTT6=
EXTT7=
EXTT8=
EXTT9=
EXTT10=
EXTT11=
EXTT12=
EXTT13=
EXTT14=
EXTT15=
EXTT16=
EXTT17=
EXTT18=
EXTT19=
EXTT20=
PLAYORDER=
